<svg xmlns="http://www.w3.org/2000/svg" xmlns:xlink="http://www.w3.org/1999/xlink" viewBox="0 0 442.93 502.95"><defs><style>.cls-1{fill:#fff;}.cls-2{fill:#ff7474;}.cls-3{fill:#ecf4f7;}.cls-4{mask:url(#mask);}.cls-5{fill:#ffe079;stroke:#231f20;stroke-miterlimit:10;stroke-width:24px;}.cls-6{fill:#51565f;}</style><mask id="mask" x="-38.4" y="-4.79" width="481.33" height="191.2" maskUnits="userSpaceOnUse"><g id="mask-2"><polygon class="cls-1" points="98.13 131.75 98.13 -4.79 -38.4 -4.79 -38.4 131.75 98.13 131.75"/></g></mask></defs><title>margartia</title><g id="Layer_2" data-name="Layer 2"><g id="Layer_1-2" data-name="Layer 1"><path class="cls-2" d="M99.84,157.35H350.72l1.71.85A25.56,25.56,0,0,1,349,165h0c-1.71,2.56-2.56,4.27-4.27,6.83h0c-13.65,22.19-36.69,36.69-68.27,36.69-17.07,0-17.07,68.27-93.87,68.27s-76.8-68.27-93.87-68.27c-37.55,0-63.15-20.48-75.95-51.2h87Z"/><path class="cls-3" d="M99.84,157.35H13.65a140.22,140.22,0,0,1-9.39-51.2h358.4v10.24c0,3.41-.85,6-.85,9.39,0,1.71-.85,3.41-.85,5.12a7.7,7.7,0,0,1-.85,4.27c0,1.71-.85,3.41-1.71,6a6.45,6.45,0,0,1-.85,3.41,12.12,12.12,0,0,1-1.71,5.12c0,.85-.85,1.71-.85,2.56-.85,2.56-1.71,4.27-2.56,6.83h0l-1.71-.85H99.84v-.85Z"/><g class="cls-4"><path class="cls-5" d="M411.31,154.79c-11.95,11.95-29,19.63-48.64,19.63a55,55,0,0,1-17.07-2.56c1.71-2.56,2.56-4.27,4.27-6.83h0a30.29,30.29,0,0,0,3.41-7.68c.85-2.56,1.71-4.27,2.56-6.83,0-.85.85-1.71.85-2.56.85-1.71.85-3.41,1.71-5.12,0-.85.85-1.71.85-3.41.85-1.71.85-3.41.85-6,0-1.71.85-2.56.85-4.27s.85-3.41.85-5.12c0-3.41.85-6,.85-9.39V104.44H294.4A71.36,71.36,0,0,1,314,55.8C326,43.85,343,36.17,362.67,36.17A71.36,71.36,0,0,1,411.31,55.8c11.95,11.95,19.63,29,19.63,48.64a72.42,72.42,0,0,1-19.63,50.35"/></g><path class="cls-6" d="M260.27,502.95H106.67a4.27,4.27,0,0,1,0-8.53H179.2V281.08c-51.2-1.71-69.12-34.13-79.36-53.76-3.41-6.83-7.68-14.51-10.24-14.51C35,212.81,0,171,0,106.15a4,4,0,0,1,4.27-4.27H65.71L17.92,5.45c0-.85-.85-.85-.85-1.71,0-1.71.85-3.41,2.56-3.41,1.71-.85,4.27,0,6,1.71l50.35,99.84H363.52a4,4,0,0,1,4.27,4.27c0,64.85-35,106.67-89.6,106.67-2.56,0-6.83,6.83-10.24,14.51-10.24,19.63-27.31,52.05-79.36,53.76V494.42h72.53a4,4,0,0,1,4.27,4.27C265.39,501.24,262.83,502.95,260.27,502.95ZM20.48,161.61C34.13,188.92,58,204.28,89.6,204.28c7.68,0,12.8,8.53,17.92,18.77,10.24,19.63,26.45,49.49,75.95,49.49s65.71-29.87,75.95-49.49c6-10.24,10.24-18.77,17.92-18.77,47.79,0,79.36-36.69,81.07-93.87H8.53c0,16.21,3.41,29.87,7.68,42.67H64a4.27,4.27,0,0,1,0,8.53H20.48Zm167.25,85.33c-5.12,0-8.53-3.41-8.53-8.53s3.41-8.53,8.53-8.53,8.53,3.41,8.53,8.53S192.85,246.95,187.73,246.95ZM140.8,229.88a4.43,4.43,0,0,1-3.41-1.71l-51.2-85.33c0-.85-.85-1.71-.85-2.56A4.43,4.43,0,0,1,87,136.87a4.5,4.5,0,0,1,6,1.71l9.39,15.36H311.47a4.27,4.27,0,1,1,0,8.53H107.52l36.69,61.44c0,.85.85,1.71.85,2.56a4.43,4.43,0,0,1-1.71,3.41Zm72.53-25.6c-5.12,0-8.53-3.41-8.53-8.53s3.41-8.53,8.53-8.53,8.53,3.41,8.53,8.53S218.45,204.28,213.33,204.28ZM379.73,177c-1.71,0-3.41-1.71-4.27-3.41-.85-2.56.85-4.27,3.41-5.12,10.24-2.56,18.77-7.68,26.45-13.65L384,133.46c-.85-.85-.85-1.71-.85-3.41s0-2.56.85-3.41a4.12,4.12,0,0,1,6,0L411.31,148a62.53,62.53,0,0,0,16.21-41.81,60.93,60.93,0,0,0-16.21-41.81L390,85.67a4.12,4.12,0,0,1-6,0c-.85-.85-.85-1.71-.85-3.41s0-2.56.85-3.41l21.33-21.33A60.93,60.93,0,0,0,363.52,41.3a62.53,62.53,0,0,0-41.81,16.21L343,78.84c.85.85.85,1.71.85,3.41s0,2.56-.85,3.41a4.12,4.12,0,0,1-6,0L315.73,64.34c-4.27,4.27-6.83,9.39-9.39,14.51-.85,2.56-3.41,3.41-6,1.71a4.12,4.12,0,0,1-1.71-6A67,67,0,0,1,312.32,55h.85a74.24,74.24,0,0,1,102.4,0h0c12.8,12.8,20.48,30.72,20.48,51.2,0,33.28-22.19,62.29-54.61,70A2.64,2.64,0,0,1,379.73,177Z"/></g></g></svg>