<svg xmlns="http://www.w3.org/2000/svg" viewBox="0 0 333.9 503.2"><defs><style>.cls-1{fill:#50dd8e;}.cls-2{fill:#ecf4f7;}.cls-3{fill:#51565f;stroke:#51565f;stroke-miterlimit:10;stroke-width:0.25px;}</style></defs><title>mojito</title><g id="Layer_2" data-name="Layer 2"><g id="Layer_1-2" data-name="Layer 1"><path class="cls-1" d="M190.13,59.61v25.6h-25.6a25.14,25.14,0,0,1-25.6-25.6V34h25.6A25.14,25.14,0,0,1,190.13,59.61ZM275.46,34v25.6a25.14,25.14,0,0,1-25.6,25.6h-25.6V59.61A25.14,25.14,0,0,1,249.86,34Z"/><path class="cls-1" d="M111.62,187.61H322.39a909.82,909.82,0,0,1,4.27,93.87,162.13,162.13,0,0,1-324.27,0,909.84,909.84,0,0,1,4.27-93.87h105Z"/><path class="cls-2" d="M111.62,187.61H6.66c2.56-21.33,6-45.23,11.09-68.27H311.3c5.12,23,8.53,46.93,11.09,68.27H111.62Z"/><path class="cls-3" d="M243.33,503.07H89.73a4.27,4.27,0,1,1,0-8.53h72.53V451.87C72.66,449.31.13,375.92.13,285.47c0-23,0-94.72,15.36-163,.85-1.71,2.56-3.41,4.27-3.41H74.36L18,5.58c0-.85-.85-.85-.85-1.71,0-1.71.85-3.41,2.56-3.41,1.71-.85,4.27,0,6,1.71L84.6,119.07H314.15c1.71,0,3.41,1.71,4.27,3.41,15.36,69.12,15.36,139.95,15.36,163,0,90.45-72.53,163.84-162.13,166.4v42.67h72.53a4,4,0,0,1,4.27,4.27C248.44,501.37,245.89,503.07,243.33,503.07ZM12.93,195.87a849.27,849.27,0,0,0-4.27,89.6c0,87,70.83,157.87,157.87,157.87s157.87-70.83,157.87-157.87c0-23,0-91.31-14.51-157.87H23.16a538.38,538.38,0,0,0-9.39,59.73H81.19a4.27,4.27,0,0,1,0,8.53H12.93Zm166.4,213.33c-5.12,0-8.53-3.41-8.53-8.53s3.41-8.53,8.53-8.53,8.53,3.41,8.53,8.53S184.45,409.21,179.33,409.21Zm-4.27-76.8a4.69,4.69,0,0,1-4.27-2.56L94,159.18v-1.71a4.69,4.69,0,0,1,2.56-4.27c2.56-.85,4.27,0,6,2.56L117,188.19c.85,0,.85-.85,1.71-.85H286a4.27,4.27,0,0,1,0,8.53H120.45l58.88,130.56v1.71a4.69,4.69,0,0,1-2.56,4.27ZM94,323.87c-5.12,0-8.53-3.41-8.53-8.53s3.41-8.53,8.53-8.53,8.53,3.41,8.53,8.53S99.11,323.87,94,323.87Zm128-42.67c-5.12,0-8.53-3.41-8.53-8.53s3.41-8.53,8.53-8.53,8.53,3.41,8.53,8.53S227.11,281.21,222,281.21ZM251.86,93.47h-25.6A4,4,0,0,1,222,89.21V63.61a30.24,30.24,0,0,1,29.87-29.87h25.6A4,4,0,0,1,281.73,38v25.6A30.24,30.24,0,0,1,251.86,93.47Zm-21.33-8.53h21.33a21.13,21.13,0,0,0,21.33-21.33V42.27H251.86a21.13,21.13,0,0,0-21.33,21.33Zm-38.4,8.53h-25.6a30.24,30.24,0,0,1-29.87-29.87V38a4,4,0,0,1,4.27-4.27h25.6a30.24,30.24,0,0,1,29.87,29.87v25.6A4,4,0,0,1,192.13,93.47Zm-46.93-51.2V63.61a21.13,21.13,0,0,0,21.33,21.33h21.33V63.61a21.13,21.13,0,0,0-21.33-21.33Z"/></g></g></svg>