<svg xmlns="http://www.w3.org/2000/svg" viewBox="0 0 274 505.35"><defs><style>.cls-1,.cls-2{fill:#fafc97;}.cls-2,.cls-4,.cls-5,.cls-6,.cls-8{stroke:#51565f;}.cls-2,.cls-4,.cls-6,.cls-8{stroke-linecap:round;}.cls-2,.cls-4{stroke-linejoin:round;}.cls-2{stroke-width:6px;}.cls-3{fill:#ecf4f7;}.cls-4,.cls-5,.cls-6{fill:none;}.cls-4,.cls-5{stroke-width:9px;}.cls-5,.cls-6,.cls-8{stroke-miterlimit:10;}.cls-6{stroke-width:8.5px;}.cls-7,.cls-8{fill:#51565f;}.cls-8{stroke-width:8px;}</style></defs><title>pina-colada</title><g id="Layer_2" data-name="Layer 2"><g id="Layer_1-2" data-name="Layer 1"><g id="pina_colada" data-name="pina colada"><polygon class="cls-1" points="31.82 160.55 28.75 208.89 21.27 268.51 15.1 323.44 23.46 365.8 58.62 405.7 119 428.1 155 428.1 201.21 413.96 238.41 385.1 258.55 334.62 254.33 280.97 247.57 228.32 242.75 181.81 242.21 165.3 242.3 160.6 31.82 160.55"/><path class="cls-2" d="M240.07,9.22a97.81,97.81,0,0,1,26.88,16L217,68.93,209.41,3A97.81,97.81,0,0,1,240.07,9.22Z"/><polygon class="cls-3" points="4.5 93.6 269.5 93.6 254.1 121.28 245.34 138.8 240.5 159.6 239.5 165.6 32.5 165.6 30.47 147.96 25.5 130.6 18.03 118.63 4.5 93.6"/><path class="cls-4" d="M118.5,94.1H4.5s10,17,22,41S28,210.6,16,310.6s97,118,103,118h36c6,0,115-18,103-118s-22.5-151.5-10.5-175.5,22-41,22-41h-151Z"/><line class="cls-5" x1="137" y1="428.6" x2="137" y2="497.1"/><line class="cls-6" x1="60" y1="501.1" x2="215" y2="501.1"/><path class="cls-7" d="M110.35,161H212.42a4.27,4.27,0,1,1,0,8.53H115.47"/><path class="cls-7" d="M182.35,377.68c-5.12,0-8.53-3.41-8.53-8.53s3.41-8.53,8.53-8.53,8.53,3.41,8.53,8.53S187.47,377.68,182.35,377.68Z"/><path class="cls-7" d="M215.35,269.68c-5.12,0-8.53-3.41-8.53-8.53s3.41-8.53,8.53-8.53,8.53,3.41,8.53,8.53S220.47,269.68,215.35,269.68Z"/><path class="cls-7" d="M134,328.35c-5.12,0-8.53-3.41-8.53-8.53s3.41-8.53,8.53-8.53,8.53,3.41,8.53,8.53S139.13,328.35,134,328.35Z"/><line class="cls-8" x1="86.5" y1="127.6" x2="182.5" y2="286.6"/><line class="cls-8" x1="27.5" y1="18.6" x2="72.73" y2="93.92"/></g></g></g></svg>